<svg width="551" height="201" viewBox="0 0 551 201" fill="none" xmlns="http://www.w3.org/2000/svg">
<path d="M183 2.70001H233.4C258.2 2.70001 276.7 18.5 276.7 41.1C276.7 63.7 258.2 79.5 233.4 79.5H204.1V118.4H183V2.70001ZM231.1 60.1C245.4 60.1 255.4 52.8 255.4 41C255.4 29.2 245.5 22 231.1 22H204.1V60.1H231.1Z" fill="white"/>
<path d="M359.9 118.5L332.6 79.6H310.2V118.5H289.1V2.70001H339.5C364.3 2.70001 382.8 18.5 382.8 41.1C382.8 58.6 371.5 72.1 354.8 77.3L383.8 118.4L359.9 118.5ZM310.1 60.1H337.1C351.4 60.1 361.4 52.8 361.4 41C361.4 29.2 351.5 22 337.1 22H310.1V60.1Z" fill="white"/>
<path d="M136.2 2.70001V110.4C136.2 121.6 127.1 130.8 115.8 130.8C106.9 130.8 99.4 125 96.6 117H75.7C79.6 135.6 96.1 149.6 115.8 149.6C138.4 149.6 156.8 131.2 156.8 108.6V2.70001H136.2Z" fill="#FCA60D"/>
<path d="M184.021 184.911V136.354H200.428C204.238 136.354 207.351 137.042 209.77 138.417C212.204 139.776 214.006 141.618 215.175 143.941C216.345 146.265 216.93 148.857 216.93 151.718C216.93 154.579 216.345 157.179 215.175 159.518C214.022 161.857 212.235 163.722 209.817 165.113C207.399 166.489 204.301 167.176 200.523 167.176H188.763V161.96H200.333C202.941 161.96 205.036 161.51 206.616 160.609C208.197 159.708 209.343 158.491 210.054 156.957C210.781 155.408 211.145 153.662 211.145 151.718C211.145 149.774 210.781 148.035 210.054 146.502C209.343 144.968 208.189 143.767 206.593 142.898C204.996 142.013 202.878 141.57 200.239 141.57H189.901V184.911H184.021ZM223.438 184.911H217.274L235.103 136.354H241.173L259.002 184.911H252.838L238.328 144.036H237.948L223.438 184.911ZM225.714 165.943H250.562V171.159H225.714V165.943ZM272.445 136.354V184.911H266.565V136.354H272.445ZM322.739 136.354V184.911H317.048L290.589 146.786H290.115V184.911H284.235V136.354H289.925L316.479 174.573H316.954V136.354H322.739ZM331.849 141.57V136.354H368.266V141.57H352.998V184.911H347.118V141.57H331.849ZM377.341 184.911V136.354H406.646V141.57H383.221V157.977H405.128V163.193H383.221V179.695H407.025V184.911H377.341ZM417.244 184.911V136.354H433.651C437.444 136.354 440.558 137.002 442.992 138.298C445.426 139.579 447.228 141.341 448.398 143.585C449.568 145.83 450.152 148.383 450.152 151.243C450.152 154.104 449.568 156.641 448.398 158.854C447.228 161.067 445.434 162.806 443.016 164.07C440.598 165.319 437.507 165.943 433.746 165.943H420.468V160.632H433.556C436.148 160.632 438.235 160.253 439.815 159.494C441.412 158.736 442.565 157.661 443.277 156.27C444.004 154.863 444.367 153.188 444.367 151.243C444.367 149.299 444.004 147.6 443.277 146.146C442.55 144.692 441.388 143.57 439.791 142.779C438.195 141.973 436.085 141.57 433.461 141.57H423.124V184.911H417.244ZM440.1 163.098L452.049 184.911H445.221L433.461 163.098H440.1ZM486.505 148.493C486.22 146.091 485.066 144.226 483.043 142.898C481.02 141.57 478.538 140.906 475.598 140.906C473.449 140.906 471.568 141.254 469.956 141.949C468.359 142.645 467.111 143.601 466.21 144.818C465.324 146.035 464.882 147.418 464.882 148.967C464.882 150.264 465.19 151.378 465.807 152.31C466.439 153.227 467.245 153.994 468.225 154.61C469.205 155.211 470.232 155.709 471.307 156.104C472.382 156.483 473.37 156.791 474.271 157.029L479.202 158.356C480.467 158.688 481.874 159.147 483.423 159.731C484.987 160.316 486.481 161.114 487.904 162.126C489.342 163.122 490.527 164.402 491.46 165.967C492.393 167.532 492.859 169.452 492.859 171.728C492.859 174.352 492.171 176.723 490.796 178.841C489.437 180.959 487.445 182.643 484.821 183.891C482.213 185.14 479.044 185.764 475.314 185.764C471.837 185.764 468.825 185.203 466.281 184.081C463.752 182.959 461.76 181.394 460.306 179.386C458.868 177.379 458.054 175.048 457.864 172.392H463.933C464.092 174.226 464.708 175.743 465.783 176.944C466.873 178.13 468.249 179.015 469.908 179.6C471.584 180.169 473.386 180.453 475.314 180.453C477.558 180.453 479.574 180.09 481.36 179.363C483.146 178.62 484.561 177.592 485.604 176.281C486.647 174.953 487.169 173.404 487.169 171.633C487.169 170.021 486.718 168.709 485.817 167.698C484.916 166.686 483.731 165.864 482.261 165.232C480.791 164.6 479.202 164.047 477.495 163.572L471.52 161.865C467.727 160.775 464.724 159.218 462.511 157.195C460.298 155.171 459.192 152.524 459.192 149.252C459.192 146.533 459.927 144.162 461.397 142.139C462.882 140.1 464.874 138.519 467.371 137.397C469.885 136.259 472.69 135.69 475.788 135.69C478.918 135.69 481.7 136.251 484.134 137.374C486.568 138.48 488.496 139.997 489.919 141.926C491.357 143.854 492.116 146.043 492.195 148.493H486.505Z" fill="#FCA60D"/>
<path d="M45.2 46.9L21.3 2.60001H0.5V116.8H21.3V40.5L45.1 84.7C51.6 73 51.6 58.7 45.2 46.9Z" fill="#FCA60D"/>
<path d="M96.7 2.70001L58.9 72.3L48.6 91.2L58.9 110.2L96.7 40.6V116.9H117.3V2.70001H96.7Z" fill="#FCA60D"/>
<path d="M492.6 77C491.8 76.2 491.2 75.4 490.6 74.6C485 90.1 470.5 101.3 454 101.3C432.6 101.3 414.6 82.8 414.6 60.5C414.6 38.4 432.6 19.9 454 19.9C460.8 19.9 467.3 21.8 473 25.2L487.4 10.8C477.8 4.39999 466.3 0.700012 454.1 0.700012C421.1 0.700012 393.2 28 393.2 60.5C393.2 93 421 120.5 454.1 120.5C475.9 120.5 495.6 108.4 506.2 90.7L492.6 77Z" fill="white"/>
<path d="M551 118.5L501.1 68.6C500.1 67.6 500.1 66.1 501.1 65.1L536 30.2C539.3 26.9 539.3 21.6 536 18.3L525.6 7.89999C522.3 4.59999 517 4.59999 513.7 7.89999L510.8 10.8L508.4 8.39999C505.7 5.69999 501.2 5.69999 498.5 8.39999L436.6 70.3C433.9 73 433.9 77.5 436.6 80.2L445.5 89.1C448.2 91.8 452.7 91.8 455.4 89.1L517.3 27.2C520 24.5 520 20 517.3 17.3L514.9 14.9L517.8 12C518.8 11 520.3 11 521.3 12L531.7 22.4C532.7 23.4 532.7 25 531.7 25.9L496.8 60.8C493.5 64.1 493.5 69.4 496.8 72.7L542.5 118.4L551 118.5ZM504.3 14L442.4 75.9C440.8 77.5 440.8 80.1 442.4 81.7L439.3 78.6C437.7 77 437.7 74.4 439.3 72.8L501.2 10.9C502.8 9.29999 505.4 9.29999 507 10.9L510.1 14C508.5 12.4 505.9 12.4 504.3 14Z" fill="#FCA60D"/>
</svg>
